<?xml version="1.0" standalone="no"?>
<!DOCTYPE svg PUBLIC "-//W3C//DTD SVG 1.1//EN" "http://www.w3.org/Graphics/SVG/1.1/DTD/svg11.dtd">
<svg xmlns="http://www.w3.org/2000/svg" width="47" height="58" viewBox="0 0 47 58" fill="none">
<path d="M47 4.04017C47 7.97318 38.9467 7.97318 23.5 7.97318C10.5213 7.97318 -4.82695e-06 8.57826 0 4.04018C1.02098e-05 -1.02051 10.5213 0.107168 23.5 0.107168C36.4787 0.107168 47 -0.497917 47 4.04017Z" fill="#33568F"/>
<path d="M42 29.0402C42 32.9732 35.6602 32.9732 23.5 32.9732C13.2827 32.9732 5 33.5783 5 29.0402C5.00001 23.9795 13.2827 25.1072 23.5 25.1072C33.7173 25.1072 42 24.5021 42 29.0402Z" fill="#33568F"/>
<path d="M47 54.0402C47 57.9732 38.9467 57.9732 23.5 57.9732C10.5213 57.9732 -4.82695e-06 58.5783 0 54.0402C1.02098e-05 48.9795 10.5213 50.1072 23.5 50.1072C36.4787 50.1072 47 49.5021 47 54.0402Z" fill="#33568F"/>
</svg>